<svg width="328" height="980" viewBox="0 0 328 980" fill="none" xmlns="http://www.w3.org/2000/svg">
<g id="hero-bkg-1">
<g id="s-1" clip-path="url(#clip0_266_349)">
<g id="Vector" style="mix-blend-mode:multiply">
<path d="M1 1.29938e-05L110.762 113.09L110.762 197.78L143.287 231.266V358.514L271 490L1 490L1 1.29938e-05Z" fill="#9FB3D4"/>
</g>
<path id="Vector_2" opacity="0.2" d="M267.4 490L0.5 490L0.5 58L125.4 182.9L125.4 348.1L267.4 490Z" fill="#FE018E"/>
<path id="Vector_3" d="M267.4 488.5L125.4 346.6L125.4 181.4L0.5 56.5" stroke="#FE018E" stroke-linejoin="round"/>
<path id="Vector_4" d="M106.7 162.7H95.8002L34.7002 101.6V90.8002L106.7 162.7Z" fill="#FE018E"/>
<path id="Vector_5" d="M144.7 375V365.8L233.5 454.7H224.3L144.7 375Z" fill="#FE018E"/>
<path id="Vector_6" opacity="0.2" d="M0.5 204.5L47 251L47 345.5L77 375.5L77 490H0.5L0.5 204.5Z" fill="#FE018E"/>
<path id="Vector_7" opacity="0.2" d="M156.6 453.8H96.0996L96.0996 393.2" fill="url(#paint0_linear_266_349)"/>
<path id="Vector_8" d="M96.0996 393.2L156.6 453.8H96.0996L96.0996 393.2Z" stroke="#FE018E" stroke-linecap="round"/>
<path id="Vector_9" d="M113.4 443.3V429.6" stroke="#FE018E" stroke-linecap="round"/>
<path id="Vector_10" d="M106.6 436.5H120.2" stroke="#FE018E" stroke-linecap="round"/>
<path id="Vector_11" d="M70.7 345.8L60 335" stroke="#FE018E" stroke-linecap="round" stroke-linejoin="round"/>
<path id="Vector_12" d="M70.7 334.4L60 323.7" stroke="#FE018E" stroke-linecap="round" stroke-linejoin="round"/>
<path id="Vector_13" d="M70.7 323.1L60 312.4" stroke="#FE018E" stroke-linecap="round" stroke-linejoin="round"/>
<path id="Vector_14" d="M70.7 311.8L60 301.1" stroke="#FE018E" stroke-linecap="round" stroke-linejoin="round"/>
<path id="Vector_15" d="M70.7 300.5L60 289.8" stroke="#FE018E" stroke-linecap="round" stroke-linejoin="round"/>
<path id="Vector_16" d="M70.7 289.2L60 278.4" stroke="#FE018E" stroke-linecap="round" stroke-linejoin="round"/>
<path id="Vector_17" d="M70.7 277.9L60 267.1" stroke="#FE018E" stroke-linecap="round" stroke-linejoin="round"/>
<path id="Vector_18" opacity="0.2" d="M111.3 195.2L111.3 294.5H89.5996L89.5996 195.2H111.3Z" fill="url(#paint1_linear_266_349)"/>
<path id="Vector_19" d="M95.6996 294.5H89.5996V288.3" stroke="#FE018E"/>
<path id="Vector_20" d="M89.5996 201.3V195.2H95.6996" stroke="#FE018E"/>
<path id="Vector_21" d="M105.1 195.2H111.3V201.3" stroke="#FE018E"/>
<path id="Vector_22" d="M111.3 288.3V294.5H105.1" stroke="#FE018E"/>
<path id="Vector_23" d="M104.3 209.5L98.2998 206.1L104.3 202.7V209.5Z" stroke="#FE018E" stroke-linejoin="bevel"/>
<path id="Vector_24" d="M104.3 287L98.2998 283.5L104.3 280.1V287Z" stroke="#FE018E" stroke-linejoin="bevel"/>
<path id="Vector_25" style="mix-blend-mode:screen" d="M21.1998 103.5L244.7 326.9L243.7 327.8L20.2998 104.4L21.1998 103.5Z" fill="url(#paint2_linear_266_349)"/>
<path id="Vector_26" style="mix-blend-mode:screen" d="M11.7998 94.8999C16.6998 89.9999 24.7998 89.9999 29.6998 94.8999C34.6998 99.8999 34.6998 107.9 29.6998 112.9C24.7998 117.9 16.6998 117.9 11.7998 112.9C6.7998 107.9 6.7998 99.8999 11.7998 94.8999Z" fill="url(#paint3_radial_266_349)"/>
<path id="Vector_27" style="mix-blend-mode:screen" d="M258.2 446.5L34.7002 223L35.7002 222.1L259.1 445.5L258.2 446.5Z" fill="url(#paint4_linear_266_349)"/>
<path id="Vector_28" style="mix-blend-mode:screen" d="M267.6 455C262.7 459.9 254.6 459.9 249.7 455C244.7 450 244.7 442 249.7 437C254.6 432 262.7 432 267.6 437C272.6 442 272.6 450 267.6 455Z" fill="url(#paint5_radial_266_349)"/>
<path id="Vector_29" style="mix-blend-mode:screen" d="M109.8 246.3C109.8 230.5 110.5 217.6 111.3 217.6C112.1 217.6 112.7 230.5 112.7 246.3C112.7 262.1 112.1 275 111.3 275C110.5 275 109.8 262.1 109.8 246.3Z" fill="url(#paint6_radial_266_349)"/>
<path id="Vector_30" style="mix-blend-mode:screen" d="M121.5 318.1C121.5 302.2 123.2 289.4 125.3 289.4C127.4 289.4 129.1 302.2 129.1 318.1C129.1 333.9 127.4 346.7 125.3 346.7C123.2 346.7 121.5 333.9 121.5 318.1Z" fill="url(#paint7_radial_266_349)"/>
<path id="Vector_31" style="mix-blend-mode:screen" d="M92.2998 427.5C92.2998 411.7 93.9998 398.9 96.0998 398.9C98.1998 398.9 99.8998 411.7 99.8998 427.5C99.8998 443.4 98.1998 456.2 96.0998 456.2C93.9998 456.2 92.2998 443.4 92.2998 427.5Z" fill="url(#paint8_radial_266_349)"/>
</g>
<g id="s-2" clip-path="url(#clip1_266_349)">
<g id="Vector_32" style="mix-blend-mode:multiply">
<path d="M1 980L110.762 866.91L110.762 782.22L143.287 748.734V621.486L271 490L1 490L1 980Z" fill="#9FB3D4"/>
</g>
<path id="Vector_33" opacity="0.2" d="M267.4 490L0.5 490L0.5 922L125.4 797.1L125.4 631.9L267.4 490Z" fill="#FE018E"/>
<path id="Vector_34" d="M267.4 491.5L125.4 633.4L125.4 798.6L0.5 923.5" stroke="#FE018E" stroke-linejoin="round"/>
<path id="Vector_35" d="M106.7 817.3H95.8002L34.7002 878.4V889.2L106.7 817.3Z" fill="#FE018E"/>
<path id="Vector_36" d="M144.7 605V614.2L233.5 525.3H224.3L144.7 605Z" fill="#FE018E"/>
<path id="Vector_37" opacity="0.2" d="M0.5 775.5L47 729L47 634.5L77 604.5L77 490H0.5L0.5 775.5Z" fill="#FE018E"/>
<path id="Vector_38" opacity="0.2" d="M156.6 526.2H96.0996L96.0996 586.8" fill="url(#paint9_linear_266_349)"/>
<path id="Vector_39" d="M96.0996 586.8L156.6 526.2H96.0996L96.0996 586.8Z" stroke="#FE018E" stroke-linecap="round"/>
<path id="Vector_40" d="M113.4 536.7V550.4" stroke="#FE018E" stroke-linecap="round"/>
<path id="Vector_41" d="M106.6 543.5H120.2" stroke="#FE018E" stroke-linecap="round"/>
<path id="Vector_42" d="M70.7 634.2L60 645" stroke="#FE018E" stroke-linecap="round" stroke-linejoin="round"/>
<path id="Vector_43" d="M70.7 645.6L60 656.3" stroke="#FE018E" stroke-linecap="round" stroke-linejoin="round"/>
<path id="Vector_44" d="M70.7 656.9L60 667.6" stroke="#FE018E" stroke-linecap="round" stroke-linejoin="round"/>
<path id="Vector_45" d="M70.7 668.2L60 678.9" stroke="#FE018E" stroke-linecap="round" stroke-linejoin="round"/>
<path id="Vector_46" d="M70.7 679.5L60 690.2" stroke="#FE018E" stroke-linecap="round" stroke-linejoin="round"/>
<path id="Vector_47" d="M70.7 690.8L60 701.6" stroke="#FE018E" stroke-linecap="round" stroke-linejoin="round"/>
<path id="Vector_48" d="M70.7 702.1L60 712.9" stroke="#FE018E" stroke-linecap="round" stroke-linejoin="round"/>
<path id="Vector_49" opacity="0.2" d="M111.3 784.8L111.3 685.5H89.5996L89.5996 784.8H111.3Z" fill="url(#paint10_linear_266_349)"/>
<path id="Vector_50" d="M95.6996 685.5H89.5996V691.7" stroke="#FE018E"/>
<path id="Vector_51" d="M89.5996 778.7V784.8H95.6996" stroke="#FE018E"/>
<path id="Vector_52" d="M105.1 784.8H111.3V778.7" stroke="#FE018E"/>
<path id="Vector_53" d="M111.3 691.7V685.5H105.1" stroke="#FE018E"/>
<path id="Vector_54" d="M104.3 770.5L98.2998 773.9L104.3 777.3V770.5Z" stroke="#FE018E" stroke-linejoin="bevel"/>
<path id="Vector_55" d="M104.3 693L98.2998 696.5L104.3 699.9V693Z" stroke="#FE018E" stroke-linejoin="bevel"/>
<path id="Vector_56" style="mix-blend-mode:screen" d="M21.1998 876.5L244.7 653.1L243.7 652.2L20.2998 875.6L21.1998 876.5Z" fill="url(#paint11_linear_266_349)"/>
<path id="Vector_57" style="mix-blend-mode:screen" d="M11.7998 885.1C16.6998 890 24.7998 890 29.6998 885.1C34.6998 880.1 34.6998 872.1 29.6998 867.1C24.7998 862.1 16.6998 862.1 11.7998 867.1C6.7998 872.1 6.7998 880.1 11.7998 885.1Z" fill="url(#paint12_radial_266_349)"/>
<path id="Vector_58" style="mix-blend-mode:screen" d="M258.2 533.5L34.7002 757L35.7002 757.9L259.1 534.5L258.2 533.5Z" fill="url(#paint13_linear_266_349)"/>
<path id="Vector_59" style="mix-blend-mode:screen" d="M267.6 525C262.7 520.1 254.6 520.1 249.7 525C244.7 530 244.7 538 249.7 543C254.6 548 262.7 548 267.6 543C272.6 538 272.6 530 267.6 525Z" fill="url(#paint14_radial_266_349)"/>
<path id="Vector_60" style="mix-blend-mode:screen" d="M109.8 733.7C109.8 749.5 110.5 762.4 111.3 762.4C112.1 762.4 112.7 749.5 112.7 733.7C112.7 717.9 112.1 705 111.3 705C110.5 705 109.8 717.9 109.8 733.7Z" fill="url(#paint15_radial_266_349)"/>
<path id="Vector_61" style="mix-blend-mode:screen" d="M121.5 661.9C121.5 677.8 123.2 690.6 125.3 690.6C127.4 690.6 129.1 677.8 129.1 661.9C129.1 646.1 127.4 633.3 125.3 633.3C123.2 633.3 121.5 646.1 121.5 661.9Z" fill="url(#paint16_radial_266_349)"/>
<path id="Vector_62" style="mix-blend-mode:screen" d="M92.2998 552.5C92.2998 568.3 93.9998 581.1 96.0998 581.1C98.1998 581.1 99.8998 568.3 99.8998 552.5C99.8998 536.6 98.1998 523.8 96.0998 523.8C93.9998 523.8 92.2998 536.6 92.2998 552.5Z" fill="url(#paint17_radial_266_349)"/>
</g>
</g>
<defs>
<linearGradient id="paint0_linear_266_349" x1="9540.15" y1="-1467.22" x2="5879.9" y2="-1467.22" gradientUnits="userSpaceOnUse">
<stop stop-color="#BF499D"/>
<stop offset="1" stop-color="#BF499D"/>
</linearGradient>
<linearGradient id="paint1_linear_266_349" x1="1936.27" y1="-19069" x2="1936.27" y2="-28929.5" gradientUnits="userSpaceOnUse">
<stop stop-color="#BF499D"/>
<stop offset="1" stop-color="#BF499D"/>
</linearGradient>
<linearGradient id="paint2_linear_266_349" x1="3610.7" y1="-88584.7" x2="51005.3" y2="-41169" gradientUnits="userSpaceOnUse">
<stop stop-color="#DDA4CA"/>
<stop offset="0.1" stop-color="#EE5A9F"/>
<stop offset="0.2" stop-color="#EC1860"/>
<stop offset="1" stop-color="#010203"/>
</linearGradient>
<radialGradient id="paint3_radial_266_349" cx="0" cy="0" r="1" gradientUnits="userSpaceOnUse" gradientTransform="translate(521.13 -9687.23) rotate(-90) scale(294.93 294.64)">
<stop stop-color="#DDA4CA"/>
<stop offset="0.1" stop-color="#EE5A9F"/>
<stop offset="0.2" stop-color="#EC1860"/>
<stop offset="1" stop-color="#010203"/>
</radialGradient>
<linearGradient id="paint4_linear_266_349" x1="58917.3" y1="-6891.38" x2="11501.5" y2="-54307.1" gradientUnits="userSpaceOnUse">
<stop stop-color="#DDA4CA"/>
<stop offset="0.1" stop-color="#EE5A9F"/>
<stop offset="0.2" stop-color="#EC1860"/>
<stop offset="1" stop-color="#010203"/>
</linearGradient>
<radialGradient id="paint5_radial_266_349" cx="0" cy="0" r="1" gradientUnits="userSpaceOnUse" gradientTransform="translate(6804.23 -647.313) rotate(-90) scale(294.93 294.64)">
<stop stop-color="#DDA4CA"/>
<stop offset="0.1" stop-color="#EE5A9F"/>
<stop offset="0.2" stop-color="#EC1860"/>
<stop offset="1" stop-color="#010203"/>
</radialGradient>
<radialGradient id="paint6_radial_266_349" cx="0" cy="0" r="1" gradientUnits="userSpaceOnUse" gradientTransform="translate(431.119 -13684.7) rotate(-90) scale(80.36 4.05999)">
<stop stop-color="#DDA4CA"/>
<stop offset="0.1" stop-color="#EE5A9F"/>
<stop offset="0.2" stop-color="#EC1860"/>
<stop offset="1" stop-color="#010203"/>
</radialGradient>
<radialGradient id="paint7_radial_266_349" cx="0" cy="0" r="1" gradientUnits="userSpaceOnUse" gradientTransform="translate(1069.98 -9474.52) rotate(-90) scale(217.74 28.88)">
<stop stop-color="#DDA4CA"/>
<stop offset="0.1" stop-color="#EE5A9F"/>
<stop offset="0.2" stop-color="#EC1860"/>
<stop offset="1" stop-color="#010203"/>
</radialGradient>
<radialGradient id="paint8_radial_266_349" cx="0" cy="0" r="1" gradientUnits="userSpaceOnUse" gradientTransform="translate(818.86 -3096.4) rotate(-90) scale(217.74 28.88)">
<stop stop-color="#DDA4CA"/>
<stop offset="0.1" stop-color="#EE5A9F"/>
<stop offset="0.2" stop-color="#EC1860"/>
<stop offset="1" stop-color="#010203"/>
</radialGradient>
<linearGradient id="paint9_linear_266_349" x1="9540.15" y1="2447.22" x2="5879.9" y2="2447.22" gradientUnits="userSpaceOnUse">
<stop stop-color="#BF499D"/>
<stop offset="1" stop-color="#BF499D"/>
</linearGradient>
<linearGradient id="paint10_linear_266_349" x1="1936.27" y1="20049" x2="1936.27" y2="29909.5" gradientUnits="userSpaceOnUse">
<stop stop-color="#BF499D"/>
<stop offset="1" stop-color="#BF499D"/>
</linearGradient>
<linearGradient id="paint11_linear_266_349" x1="3610.7" y1="89564.7" x2="51005.3" y2="42149" gradientUnits="userSpaceOnUse">
<stop stop-color="#DDA4CA"/>
<stop offset="0.1" stop-color="#EE5A9F"/>
<stop offset="0.2" stop-color="#EC1860"/>
<stop offset="1" stop-color="#010203"/>
</linearGradient>
<radialGradient id="paint12_radial_266_349" cx="0" cy="0" r="1" gradientUnits="userSpaceOnUse" gradientTransform="translate(521.13 10667.2) rotate(90) scale(294.93 294.64)">
<stop stop-color="#DDA4CA"/>
<stop offset="0.1" stop-color="#EE5A9F"/>
<stop offset="0.2" stop-color="#EC1860"/>
<stop offset="1" stop-color="#010203"/>
</radialGradient>
<linearGradient id="paint13_linear_266_349" x1="58917.3" y1="7871.38" x2="11501.5" y2="55287.1" gradientUnits="userSpaceOnUse">
<stop stop-color="#DDA4CA"/>
<stop offset="0.1" stop-color="#EE5A9F"/>
<stop offset="0.2" stop-color="#EC1860"/>
<stop offset="1" stop-color="#010203"/>
</linearGradient>
<radialGradient id="paint14_radial_266_349" cx="0" cy="0" r="1" gradientUnits="userSpaceOnUse" gradientTransform="translate(6804.23 1627.31) rotate(90) scale(294.93 294.64)">
<stop stop-color="#DDA4CA"/>
<stop offset="0.1" stop-color="#EE5A9F"/>
<stop offset="0.2" stop-color="#EC1860"/>
<stop offset="1" stop-color="#010203"/>
</radialGradient>
<radialGradient id="paint15_radial_266_349" cx="0" cy="0" r="1" gradientUnits="userSpaceOnUse" gradientTransform="translate(431.119 14664.7) rotate(90) scale(80.36 4.05999)">
<stop stop-color="#DDA4CA"/>
<stop offset="0.1" stop-color="#EE5A9F"/>
<stop offset="0.2" stop-color="#EC1860"/>
<stop offset="1" stop-color="#010203"/>
</radialGradient>
<radialGradient id="paint16_radial_266_349" cx="0" cy="0" r="1" gradientUnits="userSpaceOnUse" gradientTransform="translate(1069.98 10454.5) rotate(90) scale(217.74 28.88)">
<stop stop-color="#DDA4CA"/>
<stop offset="0.1" stop-color="#EE5A9F"/>
<stop offset="0.2" stop-color="#EC1860"/>
<stop offset="1" stop-color="#010203"/>
</radialGradient>
<radialGradient id="paint17_radial_266_349" cx="0" cy="0" r="1" gradientUnits="userSpaceOnUse" gradientTransform="translate(818.86 4076.4) rotate(90) scale(217.74 28.88)">
<stop stop-color="#DDA4CA"/>
<stop offset="0.1" stop-color="#EE5A9F"/>
<stop offset="0.2" stop-color="#EC1860"/>
<stop offset="1" stop-color="#010203"/>
</radialGradient>
<clipPath id="clip0_266_349">
<rect width="490" height="328" fill="white" transform="translate(0 490) rotate(-90)"/>
</clipPath>
<clipPath id="clip1_266_349">
<rect width="490" height="328" fill="white" transform="matrix(0 1 1 0 0 490)"/>
</clipPath>
</defs>
</svg>
