{
  "accessors": [
    {
      "bufferView": 2,
      "componentType": 5126,
      "count": 330,
      "max": [
        0.6108535528182983,
        0.39999958872795105,
        1.0
      ],
      "min": [
        -0.6108545064926147,
        -0.40000054240226746,
        0.0
      ],
      "type": "VEC3"
    },
    {
      "bufferView": 2,
      "byteOffset": 3960,
      "componentType": 5126,
      "count": 330,
      "max": [
        1.0,
        0.9999915361404419,
        1.0
      ],
      "min": [
        -1.0,
        -0.9999915361404419,
        -1.0
      ],
      "type": "VEC3"
    },
    {
      "bufferView": 1,
      "componentType": 5126,
      "count": 330,
      "max": [
        1.3896491527557373,
        0.7385388612747192
      ],
      "min": [
        -0.48144713044166565,
        0.004777802154421806
      ],
      "type": "VEC2"
    },
    {
      "bufferView": 0,
      "componentType": 5125,
      "count": 918,
      "type": "SCALAR"
    },
    {
      "bufferView": 2,
      "byteOffset": 7920,
      "componentType": 5126,
      "count": 1637,
      "max": [
        0.2538515627384186,
        0.25385168194770813,
        1.137681007385254
      ],
      "min": [
        -0.25385165214538574,
        -0.2538515031337738,
        -1.9579198351493687e-07
      ],
      "type": "VEC3"
    },
    {
      "bufferView": 2,
      "byteOffset": 27564,
      "componentType": 5126,
      "count": 1637,
      "max": [
        1.0,
        1.0,
        1.0
      ],
      "min": [
        -1.0,
        -1.0,
        -1.0
      ],
      "type": "VEC3"
    },
    {
      "bufferView": 1,
      "byteOffset": 2640,
      "componentType": 5126,
      "count": 1637,
      "max": [
        0.9967171549797058,
        0.9955455660820007
      ],
      "min": [
        0.006813675165176392,
        0.49042704701423645
      ],
      "type": "VEC2"
    },
    {
      "bufferView": 0,
      "byteOffset": 3672,
      "componentType": 5125,
      "count": 7452,
      "type": "SCALAR"
    },
    {
      "bufferView": 2,
      "byteOffset": 47208,
      "componentType": 5126,
      "count": 1727,
      "max": [
        0.271358847618103,
        0.29246050119400024,
        1.1815719604492188
      ],
      "min": [
        -0.271358847618103,
        -0.25335273146629333,
        -3.5762786865234375e-07
      ],
      "type": "VEC3"
    },
    {
      "bufferView": 2,
      "byteOffset": 67932,
      "componentType": 5126,
      "count": 1727,
      "max": [
        1.0,
        1.0,
        1.0
      ],
      "min": [
        -1.0,
        -1.0,
        -1.0
      ],
      "type": "VEC3"
    },
    {
      "bufferView": 1,
      "byteOffset": 15736,
      "componentType": 5126,
      "count": 1727,
      "max": [
        0.9967171549797058,
        0.9955455660820007
      ],
      "min": [
        0.006813675165176392,
        0.49042704701423645
      ],
      "type": "VEC2"
    },
    {
      "bufferView": 0,
      "byteOffset": 33480,
      "componentType": 5125,
      "count": 7932,
      "type": "SCALAR"
    },
    {
      "bufferView": 2,
      "byteOffset": 88656,
      "componentType": 5126,
      "count": 1248,
      "max": [
        0.8822836875915527,
        0.8771628141403198,
        1.1744518280029297
      ],
      "min": [
        -1.509597780113836e-07,
        -4.7477280418206647e-07,
        -1.1785359532723305e-07
      ],
      "type": "VEC3"
    },
    {
      "bufferView": 2,
      "byteOffset": 103632,
      "componentType": 5126,
      "count": 1248,
      "max": [
        1.0,
        1.0,
        1.0
      ],
      "min": [
        -0.9999902844429016,
        -0.9999902844429016,
        -1.0
      ],
      "type": "VEC3"
    },
    {
      "bufferView": 1,
      "byteOffset": 29552,
      "componentType": 5126,
      "count": 1248,
      "max": [
        0.995034396648407,
        0.9923598170280457
      ],
      "min": [
        0.0037901848554611206,
        0.004371533636003733
      ],
      "type": "VEC2"
    },
    {
      "bufferView": 0,
      "byteOffset": 65208,
      "componentType": 5125,
      "count": 4860,
      "type": "SCALAR"
    },
    {
      "bufferView": 2,
      "byteOffset": 118608,
      "componentType": 5126,
      "count": 1104,
      "max": [
        0.4904579520225525,
        0.7908840179443359,
        1.1706324815750122
      ],
      "min": [
        -0.48645567893981934,
        -1.9371509552001953e-07,
        -1.1920928955078125e-07
      ],
      "type": "VEC3"
    },
    {
      "bufferView": 2,
      "byteOffset": 131856,
      "componentType": 5126,
      "count": 1104,
      "max": [
        1.0,
        1.0,
        1.0
      ],
      "min": [
        -1.0,
        -0.999995231628418,
        -0.9999990463256836
      ],
      "type": "VEC3"
    },
    {
      "bufferView": 1,
      "byteOffset": 39536,
      "componentType": 5126,
      "count": 1104,
      "max": [
        0.9949108958244324,
        0.9989393353462219
      ],
      "min": [
        0.003123238682746887,
        0.004055867437273264
      ],
      "type": "VEC2"
    },
    {
      "bufferView": 0,
      "byteOffset": 84648,
      "componentType": 5125,
      "count": 4518,
      "type": "SCALAR"
    }
  ],
  "asset": {
    "extras": {
      "author": "Kidney_02 (https://sketchfab.com/Kidney02)",
      "license": "CC-BY-4.0 (http://creativecommons.org/licenses/by/4.0/)",
      "source": "https://sketchfab.com/3d-models/chairs-945ed63fad7a46e79975414ed701eda5",
      "title": "Chairs"
    },
    "generator": "Sketchfab-13.74.0",
    "version": "2.0"
  },
  "bufferViews": [
    {
      "buffer": 0,
      "byteLength": 102720,
      "name": "floatBufferViews",
      "target": 34963
    },
    {
      "buffer": 0,
      "byteLength": 48368,
      "byteOffset": 102720,
      "byteStride": 8,
      "name": "floatBufferViews",
      "target": 34962
    },
    {
      "buffer": 0,
      "byteLength": 145104,
      "byteOffset": 151088,
      "byteStride": 12,
      "name": "floatBufferViews",
      "target": 34962
    }
  ],
  "buffers": [
    {
      "byteLength": 296192,
      "uri": "scene.bin"
    }
  ],
  "images": [
    {
      "uri": "textures/Tables_Chairs_baseColor.png"
    },
    {
      "uri": "textures/Sofas_baseColor.png"
    }
  ],
  "materials": [
    {
      "doubleSided": true,
      "name": "Tables_Chairs",
      "pbrMetallicRoughness": {
        "baseColorTexture": {
          "index": 0
        },
        "metallicFactor": 0.0,
        "roughnessFactor": 0.8211145618
      }
    },
    {
      "doubleSided": true,
      "name": "Sofas",
      "pbrMetallicRoughness": {
        "baseColorTexture": {
          "index": 1
        },
        "metallicFactor": 0.0,
        "roughnessFactor": 0.8707407269
      }
    }
  ],
  "meshes": [
    {
      "name": "Table.006_Tables_Chairs_0",
      "primitives": [
        {
          "attributes": {
            "NORMAL": 1,
            "POSITION": 0,
            "TEXCOORD_0": 2
          },
          "indices": 3,
          "material": 0,
          "mode": 4
        }
      ]
    },
    {
      "name": "Stool.006_Tables_Chairs_0",
      "primitives": [
        {
          "attributes": {
            "NORMAL": 5,
            "POSITION": 4,
            "TEXCOORD_0": 6
          },
          "indices": 7,
          "material": 0,
          "mode": 4
        }
      ]
    },
    {
      "name": "Chair.012_Tables_Chairs_0",
      "primitives": [
        {
          "attributes": {
            "NORMAL": 9,
            "POSITION": 8,
            "TEXCOORD_0": 10
          },
          "indices": 11,
          "material": 0,
          "mode": 4
        }
      ]
    },
    {
      "name": "Sofa.002_Sofas_0",
      "primitives": [
        {
          "attributes": {
            "NORMAL": 13,
            "POSITION": 12,
            "TEXCOORD_0": 14
          },
          "indices": 15,
          "material": 1,
          "mode": 4
        }
      ]
    },
    {
      "name": "Sofa.003_Sofas_0",
      "primitives": [
        {
          "attributes": {
            "NORMAL": 17,
            "POSITION": 16,
            "TEXCOORD_0": 18
          },
          "indices": 19,
          "material": 1,
          "mode": 4
        }
      ]
    }
  ],
  "nodes": [
    {
      "children": [
        1
      ],
      "matrix": [
        1.0,
        0.0,
        0.0,
        0.0,
        0.0,
        2.220446049250313e-16,
        -1.0,
        0.0,
        0.0,
        1.0,
        2.220446049250313e-16,
        0.0,
        0.0,
        0.0,
        0.0,
        1.0
      ],
      "name": "Sketchfab_model"
    },
    {
      "children": [
        2
      ],
      "matrix": [
        1.0,
        0.0,
        0.0,
        0.0,
        0.0,
        0.0,
        1.0,
        0.0,
        0.0,
        -1.0,
        0.0,
        0.0,
        0.0,
        0.0,
        0.0,
        1.0
      ],
      "name": "47b141563fec48a9b73b87deb2b277a0.fbx"
    },
    {
      "children": [
        3,
        5,
        7,
        9,
        11
      ],
      "name": "RootNode"
    },
    {
      "children": [
        4
      ],
      "matrix": [
        0.9973993661545311,
        0.0,
        0.07207208325873335,
        0.0,
        0.07207208325873328,
        -4.371138745769289e-08,
        -0.9973993661545301,
        0.0,
        3.1503711306335447e-09,
        0.9999999999999991,
        -4.359771543782642e-08,
        0.0,
        -0.35468965768814087,
        0.0,
        0.28301364183425903,
        1.0
      ],
      "name": "Table.006"
    },
    {
      "mesh": 0,
      "name": "Table.006_Tables_Chairs_0"
    },
    {
      "children": [
        6
      ],
      "matrix": [
        1.0,
        0.0,
        0.0,
        0.0,
        0.0,
        -1.6292067939183141e-07,
        -0.9999999999999868,
        0.0,
        0.0,
        0.9999999999999868,
        -1.6292067939183141e-07,
        0.0,
        0.6702842116355896,
        2.86102294921875e-06,
        0.2430892437696457,
        1.0
      ],
      "name": "Stool.006"
    },
    {
      "mesh": 1,
      "name": "Stool.006_Tables_Chairs_0"
    },
    {
      "children": [
        8
      ],
      "matrix": [
        -0.582634548277638,
        3.8506873800692176e-08,
        0.8127342635531685,
        0.0,
        0.8127342635531474,
        2.6020209542565453e-07,
        0.5826345482776105,
        0.0,
        -1.8903972331951735e-07,
        0.9999999999999654,
        -1.8289858605413656e-07,
        0.0,
        0.4561576247215271,
        2.86102294921875e-06,
        0.8731685280799866,
        1.0
      ],
      "name": "Chair.012"
    },
    {
      "mesh": 2,
      "name": "Chair.012_Tables_Chairs_0"
    },
    {
      "children": [
        10
      ],
      "matrix": [
        -0.9999999999999241,
        1.2246465878873718e-16,
        3.8941437775530107e-07,
        0.0,
        3.8941437775529995e-07,
        7.549789982075339e-08,
        0.9999999999999213,
        0.0,
        -2.9277502948264183e-14,
        0.999999999999997,
        -7.549789970973109e-08,
        0.0,
        1.0245447158813477,
        2.6226043701171875e-06,
        -1.082711935043335,
        1.0
      ],
      "name": "Sofa.002"
    },
    {
      "mesh": 3,
      "name": "Sofa.002_Sofas_0"
    },
    {
      "children": [
        12
      ],
      "matrix": [
        -0.9999999999999241,
        1.2246465878873718e-16,
        3.8941437775530107e-07,
        0.0,
        3.8941437775529995e-07,
        7.549789982075339e-08,
        0.9999999999999213,
        0.0,
        -2.9277502948264183e-14,
        0.999999999999997,
        -7.549789970973109e-08,
        0.0,
        -0.3346415162086487,
        2.6226043701171875e-06,
        -1.082711935043335,
        1.0
      ],
      "name": "Sofa.003"
    },
    {
      "mesh": 4,
      "name": "Sofa.003_Sofas_0"
    }
  ],
  "samplers": [
    {
      "magFilter": 9729,
      "minFilter": 9987,
      "wrapS": 10497,
      "wrapT": 10497
    }
  ],
  "scene": 0,
  "scenes": [
    {
      "name": "Sketchfab_Scene",
      "nodes": [
        0
      ]
    }
  ],
  "textures": [
    {
      "sampler": 0,
      "source": 0
    },
    {
      "sampler": 0,
      "source": 1
    }
  ]
}
